# xmcd
# Track frame offsets:
# 182
# 13995
# 27432
# 40860
# 54645
# 67517
# 82770
# 96492
# 109345
# 122197
# 134872
# 149612
# 163425
# 177040
#
# Disc length: 2522 seconds
# Revision: 3
# Processed by: cddbd v1.4PL0 Copyright (c) Steve Scherf et al.
# Submitted via: Gronk 1.4
#
DISCID=cd09d80e
DTITLE=Scrapper Blackwell - Virtuoso Guitar Of Scrapper Blackwell, The
DYEAR=1900
DGENRE=blues
TTITLE0=Kokomo Blues
TTITLE1=Down South Blues
TTITLE2=Good Woman Blues (Leroy Carr)
TTITLE3=My Dream Blues (Black Bottom McPhail)
TTITLE4=Hard Time Blues
TTITLE5=Penal Farm Blues
TTITLE6=Down In Black Bottom (Black Bottom McPhail)
TTITLE7=Pack Up Her Trunk Blues (Tommie Bradley)
TTITLE8=Back Door Blues
TTITLE9=Blue Day Blues
TTITLE10=Whiskey Man Blues (Black Bottom McPhail)
TTITLE11=Trouble Blues Part 1
TTITLE12=Trouble Blues Part 2
TTITLE13=Barrelhouse Woman No. 2 (Leroy Carr)
EXTD=Yazoo 1019
EXTT0=
EXTT1=
EXTT2=
EXTT3=
EXTT4=
EXTT5=
EXTT6=
EXTT7=
EXTT8=
EXTT9=
EXTT10=
EXTT11=
EXTT12=
EXTT13=
PLAYORDER=
